<svg xmlns="http://www.w3.org/2000/svg" width="420" height="355" style="background-color:transparent">
  <!-- transform="scale(0.3) translate(1200 -250)" -->
  <g transform="translate(-340 -335)">
    <path id="inside"
      d="M 497.500 368.368 C 494.200 369.596, 490.110 371.340, 488.412 372.243 C 483.753 374.719, 470.187 388.406, 469.440 391.385 C 468.624 394.632, 467.009 394.703, 464.112 391.619 C 445.663 371.981, 401 390.359, 401 417.589 C 401 419.504, 400.478 420, 398.460 420 C 387.697 420, 373 437.908, 373 451.023 C 373 456, 373 456, 385 456 C 397 456, 397 456, 397 450.934 C 397 443.411, 400.123 439.488, 417.113 425.676 C 421.657 421.983, 422.843 420.388, 423.339 417.307 C 425.159 405.989, 439.362 403.442, 443.634 413.666 C 447.094 421.948, 441.942 428.491, 431.953 428.497 C 423.556 428.502, 407.039 443.571, 407.015 451.250 C 406.998 456.698, 411.982 458.204, 416.436 454.096 C 421.091 449.802, 429.711 449.618, 434.240 453.717 C 447.646 465.849, 430.982 484.503, 416.568 473.500 C 407.557 466.622, 374.210 468.275, 371.139 475.751 C 356.972 510.251, 384.396 540.713, 427.573 538.438 C 440.646 537.749, 440.646 537.749, 445.573 541.282 C 456.910 549.411, 472.311 552.824, 483.106 549.600 C 485.563 548.867, 485.744 549.053, 486.251 552.838 C 487.747 563.985, 496.447 576.222, 507.500 582.722 C 530.555 596.280, 555.388 597.654, 557.035 585.462 C 559.359 568.252, 607.713 559.371, 638.025 570.586 C 644.665 573.043, 677 574.381, 677 572.199 C 677 562.739, 650.714 547, 634.911 546.996 C 613.934 546.992, 617.145 548.557, 595.249 527.666 C 578.999 512.162, 578.999 512.162, 575.434 513.146 C 573.473 513.687, 570.549 513.840, 568.935 513.486 C 564.369 512.483, 564.342 530.192, 568.903 534.256 C 577.032 541.499, 570.930 554.069, 560.756 551.039 C 553.728 548.945, 551.652 539.995, 557.030 534.972 C 567.561 525.135, 560.122 505.513, 545.750 505.222 C 532.372 504.951, 532 505, 532 507.038 C 532 512.858, 531.513 513, 511.500 513 C 494.104 513, 493.010 513.112, 492.002 514.997 C 485.965 526.276, 467 520.212, 467 507.003 C 467 495.264, 485.228 489.385, 491.330 499.156 C 497.925 509.717, 515 500.227, 515 486 C 515 463.185, 481.823 462.909, 458.731 485.531 C 443.962 500, 443.962 500, 428.981 500 C 419.924 500, 414 500.385, 414 500.974 C 414 505.953, 403.099 505.066, 400.964 499.914 C 397.608 491.811, 408.284 485.613, 413.914 492.396 C 414.997 493.701, 417.428 494, 426.958 494 C 449.121 494, 474.820 456.630, 459.541 446.619 C 453.316 442.540, 454.461 431.377, 461.402 428.477 C 472.498 423.840, 481.248 437.314, 472.500 445.565 C 460.252 457.116, 467.533 464, 492 464 C 515 464, 515 464, 515 436.500 C 515 407.636, 511.662 401.216, 502 411.500 C 495.058 418.890, 483.079 409.958, 487.483 400.677 C 490.438 394.450, 496.965 393.275, 502.347 398 C 505.719 400.960, 505.916 401, 517.227 401 C 532.742 401, 532 399.954, 532 421.829 C 532 439, 532 439, 545.500 439 C 559.223 439, 565.203 427.701, 557 417.273 C 549.562 407.817, 561.452 394.825, 571.512 401.416 C 576.400 404.619, 577.196 413.703, 572.927 417.566 C 563.975 425.668, 571.173 439, 584.500 439 C 596.833 439, 605.249 428.598, 597.027 423.517 C 593.302 421.215, 594.167 410.593, 598.362 407.114 C 606.895 400.037, 617.151 412.680, 611.026 422.725 C 609.392 425.404, 609.013 428.108, 608.780 438.725 C 608.500 451.500, 608.500 451.500, 570.250 451.762 C 532 452.024, 532 452.024, 532 473.012 C 532 493.423, 552.655 506.499, 560 490.738 C 565.046 479.909, 581.132 480.521, 586.536 491.747 C 588.432 495.687, 632.955 454.705, 645.807 437.190 C 654.188 425.768, 673.549 437.058, 667.330 449.741 C 663.947 456.640, 656.438 459.638, 649.318 456.931 C 646.573 455.887, 646.025 456.349, 626.455 476.181 C 615.426 487.356, 603.779 498.943, 600.573 501.929 C 589.668 512.081, 614.972 533, 638.156 533 C 655.264 533, 681.921 515.368, 682.022 503.987 C 682.082 497.229, 689.153 489, 694.900 489 C 712.018 489, 713.560 513.994, 696.599 516.537 C 690.704 517.421, 666.102 541.498, 667.854 544.667 C 680.029 566.677, 727.776 584.575, 731.293 568.448 C 734.072 555.706, 730.603 536.271, 723.726 526.059 C 720.193 520.813, 720.193 520.813, 722.601 515.368 C 732.932 492.008, 721.650 466.261, 698.379 460.086 C 694.258 458.992, 694.258 458.992, 693.584 451.746 C 690.833 422.159, 666.247 403.300, 640.838 411.286 C 636.177 412.751, 636.177 412.751, 634.425 408.126 C 625.302 384.034, 596.206 374.285, 577.708 389.121 C 573.915 392.162, 573.915 392.162, 571.708 389.331 C 556.175 369.413, 521.224 359.539, 497.500 368.368 M 695.339 537.935 C 691.558 540.241, 690.611 542.739, 691.508 548.048 C 693.107 557.509, 707.433 557.409, 709.517 547.922 C 711.391 539.390, 702.836 533.364, 695.339 537.935 M 592.173 576.075 C 580.767 577.555, 571.830 581.406, 569.701 585.760 C 566.901 591.484, 567.446 608.426, 570.473 609.806 C 574.089 611.453, 574 611.540, 574 606.383 C 574 602.068, 574.147 601.810, 576.250 602.422 C 598.498 608.899, 616.983 609.419, 631.313 603.972 C 638.148 601.374, 638 601.318, 638 606.500 C 638 611.441, 639.472 612.346, 642.345 609.171 C 644.855 606.397, 644.696 589.653, 642.119 585.427 C 637.141 577.264, 614.982 573.115, 592.173 576.075 M 652 598.393 C 652 612.914, 651.180 611.977, 664.550 612.737 C 683.247 613.800, 696.153 607.935, 706.751 593.561 C 712.198 586.172, 712.503 586.247, 676.250 586.099 C 652 586, 652 586, 652 598.393 M 639.527 612.662 C 625.459 620.565, 588.163 620.689, 572.790 612.884 C 570.749 611.848, 568.837 611, 568.540 611 C 566.786 611, 568.099 626.983, 569.934 627.965 C 573.216 629.721, 574 629.149, 574 625 C 574 622.800, 574.114 621, 574.252 621 C 574.391 621, 579.004 622.120, 584.502 623.488 C 598.361 626.937, 622.588 626.683, 631.500 622.995 C 637.135 620.663, 638 620.942, 638 625.094 C 638 629.255, 639.241 630.007, 642.353 627.731 C 646.706 624.548, 644.005 610.146, 639.527 612.662 M 635.366 632.222 C 617.371 638.364, 588.776 638.098, 573.628 631.649 C 571.498 630.742, 569.361 630, 568.878 630 C 567.239 630, 567.855 643.713, 569.571 645.429 C 572.406 648.263, 574 647.359, 574 642.917 C 574 640.037, 574.369 638.988, 575.250 639.357 C 587.052 644.301, 616.794 645.355, 630.750 641.323 C 638 639.229, 638 639.229, 638 643.114 C 638 647.255, 639.246 648.003, 642.355 645.730 C 649.227 640.705, 643.416 629.474, 635.366 632.222 M 568 648.813 C 568 664.550, 622.226 668.487, 639.954 654.037 C 646.084 649.041, 645.200 645.584, 638.648 648.925 C 623.256 656.772, 585.191 656.764, 572.382 648.912 C 568.522 646.545, 568 646.534, 568 648.813"
      stroke="none" fill="#fffff5db" fill-rule="evenodd" />
    <path id="outline"
      d="M 506 341.526 C 502.975 342.337, 498.875 343.449, 496.889 343.998 C 492.310 345.265, 476.175 355.865, 469.088 362.263 C 465.825 365.209, 463.046 366.955, 462.088 366.660 C 461.215 366.391, 459.150 365.721, 457.500 365.170 C 449.362 362.453, 446.751 362, 439.244 362 C 413.728 362, 384 381.401, 384 398.054 C 384 399.431, 383.312 400, 381.644 400 C 367.732 400, 349.058 432.500, 349.017 456.782 C 349.004 464.555, 348.487 468.580, 346.898 473.282 C 331.712 518.211, 369.036 563.947, 419.032 561.673 C 432.066 561.080, 432.827 561.151, 434.617 563.134 C 438.956 567.938, 454.709 573.991, 462.932 574.012 C 467.454 574.024, 467.532 574.081, 470.662 579.762 C 481.666 599.731, 503.170 612, 527.165 612 C 533.776 612, 533.977 612.075, 534.526 614.750 C 536.013 621.991, 537.438 625.998, 540.583 631.784 C 543.470 637.094, 544 639.070, 544 644.524 C 544 700.827, 664.737 701.634, 667.797 645.351 C 668.295 636.200, 668.522 636, 678.415 636 C 689.126 636, 705.637 628.647, 716.216 619.166 C 719.693 616.050, 723.250 613.050, 724.120 612.500 C 746.406 598.404, 755.237 583.904, 755.417 561.110 C 755.544 544.971, 754.048 531.170, 751.313 523.243 C 749.221 517.179, 748.989 515.470, 749.905 512.844 C 757.430 491.257, 745.097 459.991, 722.711 443.906 C 718.140 440.621, 717.431 439.544, 714.481 431.406 C 708.407 414.653, 700.057 404.066, 686 395.294 C 675.958 389.028, 664.350 385.421, 657.523 386.444 C 652.852 387.145, 652.852 387.145, 643.403 377.634 C 627.055 361.180, 609.023 355.407, 586.500 359.417 C 577.960 360.938, 577.423 360.928, 576 359.227 C 563.967 344.844, 527.779 335.693, 506 341.526 M 497.500 368.368 C 494.200 369.596, 490.110 371.340, 488.412 372.243 C 483.753 374.719, 470.187 388.406, 469.440 391.385 C 468.624 394.632, 467.009 394.703, 464.112 391.619 C 445.663 371.981, 401 390.359, 401 417.589 C 401 419.504, 400.478 420, 398.460 420 C 387.697 420, 373 437.908, 373 451.023 C 373 456, 373 456, 385 456 C 397 456, 397 456, 397 450.934 C 397 443.411, 400.123 439.488, 417.113 425.676 C 421.657 421.983, 422.843 420.388, 423.339 417.307 C 425.159 405.989, 439.362 403.442, 443.634 413.666 C 447.094 421.948, 441.942 428.491, 431.953 428.497 C 423.556 428.502, 407.039 443.571, 407.015 451.250 C 406.998 456.698, 411.982 458.204, 416.436 454.096 C 421.091 449.802, 429.711 449.618, 434.240 453.717 C 447.646 465.849, 430.982 484.503, 416.568 473.500 C 407.557 466.622, 374.210 468.275, 371.139 475.751 C 356.972 510.251, 384.396 540.713, 427.573 538.438 C 440.646 537.749, 440.646 537.749, 445.573 541.282 C 456.910 549.411, 472.311 552.824, 483.106 549.600 C 485.563 548.867, 485.744 549.053, 486.251 552.838 C 487.747 563.985, 496.447 576.222, 507.500 582.722 C 530.555 596.280, 555.388 597.654, 557.035 585.462 C 559.359 568.252, 607.713 559.371, 638.025 570.586 C 644.665 573.043, 677 574.381, 677 572.199 C 677 562.739, 650.714 547, 634.911 546.996 C 613.934 546.992, 617.145 548.557, 595.249 527.666 C 578.999 512.162, 578.999 512.162, 575.434 513.146 C 573.473 513.687, 570.549 513.840, 568.935 513.486 C 564.369 512.483, 564.342 530.192, 568.903 534.256 C 577.032 541.499, 570.930 554.069, 560.756 551.039 C 553.728 548.945, 551.652 539.995, 557.030 534.972 C 567.561 525.135, 560.122 505.513, 545.750 505.222 C 532.372 504.951, 532 505, 532 507.038 C 532 512.858, 531.513 513, 511.500 513 C 494.104 513, 493.010 513.112, 492.002 514.997 C 485.965 526.276, 467 520.212, 467 507.003 C 467 495.264, 485.228 489.385, 491.330 499.156 C 497.925 509.717, 515 500.227, 515 486 C 515 463.185, 481.823 462.909, 458.731 485.531 C 443.962 500, 443.962 500, 428.981 500 C 419.924 500, 414 500.385, 414 500.974 C 414 505.953, 403.099 505.066, 400.964 499.914 C 397.608 491.811, 408.284 485.613, 413.914 492.396 C 414.997 493.701, 417.428 494, 426.958 494 C 449.121 494, 474.820 456.630, 459.541 446.619 C 453.316 442.540, 454.461 431.377, 461.402 428.477 C 472.498 423.840, 481.248 437.314, 472.500 445.565 C 460.252 457.116, 467.533 464, 492 464 C 515 464, 515 464, 515 436.500 C 515 407.636, 511.662 401.216, 502 411.500 C 495.058 418.890, 483.079 409.958, 487.483 400.677 C 490.438 394.450, 496.965 393.275, 502.347 398 C 505.719 400.960, 505.916 401, 517.227 401 C 532.742 401, 532 399.954, 532 421.829 C 532 439, 532 439, 545.500 439 C 559.223 439, 565.203 427.701, 557 417.273 C 549.562 407.817, 561.452 394.825, 571.512 401.416 C 576.400 404.619, 577.196 413.703, 572.927 417.566 C 563.975 425.668, 571.173 439, 584.500 439 C 596.833 439, 605.249 428.598, 597.027 423.517 C 593.302 421.215, 594.167 410.593, 598.362 407.114 C 606.895 400.037, 617.151 412.680, 611.026 422.725 C 609.392 425.404, 609.013 428.108, 608.780 438.725 C 608.500 451.500, 608.500 451.500, 570.250 451.762 C 532 452.024, 532 452.024, 532 473.012 C 532 493.423, 552.655 506.499, 560 490.738 C 565.046 479.909, 581.132 480.521, 586.536 491.747 C 588.432 495.687, 632.955 454.705, 645.807 437.190 C 654.188 425.768, 673.549 437.058, 667.330 449.741 C 663.947 456.640, 656.438 459.638, 649.318 456.931 C 646.573 455.887, 646.025 456.349, 626.455 476.181 C 615.426 487.356, 603.779 498.943, 600.573 501.929 C 589.668 512.081, 614.972 533, 638.156 533 C 655.264 533, 681.921 515.368, 682.022 503.987 C 682.082 497.229, 689.153 489, 694.900 489 C 712.018 489, 713.560 513.994, 696.599 516.537 C 690.704 517.421, 666.102 541.498, 667.854 544.667 C 680.029 566.677, 727.776 584.575, 731.293 568.448 C 734.072 555.706, 730.603 536.271, 723.726 526.059 C 720.193 520.813, 720.193 520.813, 722.601 515.368 C 732.932 492.008, 721.650 466.261, 698.379 460.086 C 694.258 458.992, 694.258 458.992, 693.584 451.746 C 690.833 422.159, 666.247 403.300, 640.838 411.286 C 636.177 412.751, 636.177 412.751, 634.425 408.126 C 625.302 384.034, 596.206 374.285, 577.708 389.121 C 573.915 392.162, 573.915 392.162, 571.708 389.331 C 556.175 369.413, 521.224 359.539, 497.500 368.368 M 695.339 537.935 C 691.558 540.241, 690.611 542.739, 691.508 548.048 C 693.107 557.509, 707.433 557.409, 709.517 547.922 C 711.391 539.390, 702.836 533.364, 695.339 537.935 M 592.173 576.075 C 580.767 577.555, 571.830 581.406, 569.701 585.760 C 566.901 591.484, 567.446 608.426, 570.473 609.806 C 574.089 611.453, 574 611.540, 574 606.383 C 574 602.068, 574.147 601.810, 576.250 602.422 C 598.498 608.899, 616.983 609.419, 631.313 603.972 C 638.148 601.374, 638 601.318, 638 606.500 C 638 611.441, 639.472 612.346, 642.345 609.171 C 644.855 606.397, 644.696 589.653, 642.119 585.427 C 637.141 577.264, 614.982 573.115, 592.173 576.075 M 652 598.393 C 652 612.914, 651.180 611.977, 664.550 612.737 C 683.247 613.800, 696.153 607.935, 706.751 593.561 C 712.198 586.172, 712.503 586.247, 676.250 586.099 C 652 586, 652 586, 652 598.393 M 639.527 612.662 C 625.459 620.565, 588.163 620.689, 572.790 612.884 C 570.749 611.848, 568.837 611, 568.540 611 C 566.786 611, 568.099 626.983, 569.934 627.965 C 573.216 629.721, 574 629.149, 574 625 C 574 622.800, 574.114 621, 574.252 621 C 574.391 621, 579.004 622.120, 584.502 623.488 C 598.361 626.937, 622.588 626.683, 631.500 622.995 C 637.135 620.663, 638 620.942, 638 625.094 C 638 629.255, 639.241 630.007, 642.353 627.731 C 646.706 624.548, 644.005 610.146, 639.527 612.662 M 635.366 632.222 C 617.371 638.364, 588.776 638.098, 573.628 631.649 C 571.498 630.742, 569.361 630, 568.878 630 C 567.239 630, 567.855 643.713, 569.571 645.429 C 572.406 648.263, 574 647.359, 574 642.917 C 574 640.037, 574.369 638.988, 575.250 639.357 C 587.052 644.301, 616.794 645.355, 630.750 641.323 C 638 639.229, 638 639.229, 638 643.114 C 638 647.255, 639.246 648.003, 642.355 645.730 C 649.227 640.705, 643.416 629.474, 635.366 632.222 M 568 648.813 C 568 664.550, 622.226 668.487, 639.954 654.037 C 646.084 649.041, 645.200 645.584, 638.648 648.925 C 623.256 656.772, 585.191 656.764, 572.382 648.912 C 568.522 646.545, 568 646.534, 568 648.813"
      stroke="none" fill="#00ccff" fill-rule="evenodd" />
  </g>
</svg>