
        <svg xmlns="http://www.w3.org/2000/svg" xmlns:xlink="http://www.w3.org/1999/xlink" version="1.1" width="3171.4285714285716" height="2171.3407109694786" viewBox="0 0 3171.4285714285716 2171.3407109694786" style="background-color:black">

			<g transform="scale(8.571428571428571) translate(10, 10)">
				<defs id="SvgjsDefs5532"></defs><g id="SvgjsG5533" featureKey="MI9fam-0" transform="matrix(1.937855535537824,0,0,1.937855535537824,78.44055286027603,-27.781097814980782)" fill="#ffb26b"><g xmlns="http://www.w3.org/2000/svg"><g><path d="M50.023,52.662c8.141,0,20.761-8.777,13.741-23.499c-0.393-0.824,0.732-1.517,1.283-0.79    c11.625,15.355-1.063,32.072-15.024,32.072h-0.045c-13.961,0-26.649-16.717-15.024-32.072c0.551-0.728,1.676-0.034,1.283,0.79    C29.217,43.886,42.063,52.662,50.023,52.662L50.023,52.662z"></path><path d="M60.879,65.505c9.612-4.494,19.223-0.315,19.223,9.098c0,6.348-5.974,14.285-15.584,9.534    c-0.664-0.328-0.323-1.321,0.405-1.183c5.695,1.082,9.701-2.839,9.701-7.259c0-6.563-7.359-6.012-11.733-3.508L39.121,83.852    c-9.612,4.494-19.223,0.315-19.223-9.098c0-6.348,5.974-14.285,15.584-9.534c0.664,0.328,0.323,1.321-0.405,1.183    c-5.695-1.082-9.701,2.839-9.701,7.259c0,6.563,7.359,6.012,11.733,3.508l23.771-11.667L60.879,65.505z"></path><path d="M50,14.336c-9.557,0-11.465,14.069-5.809,19.744c0.591,0.593,1.536-0.166,1.086-0.872    C42.275,28.49,44.737,20.636,50,20.645c5.263-0.009,7.725,7.845,4.723,12.562c-0.45,0.707,0.495,1.466,1.086,0.872    C61.465,28.405,59.557,14.336,50,14.336z"></path></g></g></g><g id="SvgjsG5534" featureKey="EI8VXn-0" transform="matrix(1.4052838811164734,0,0,1.4052838811164734,-2.248454075768043,149.82124757066916)" fill="#ffffff"><path d="M1.6 6.140000000000001 l3.12 0 l0 13.86 l-3.12 0 l0 -13.86 z M17.22 20 q-1.34 -2.38 -2.9 -4.7 t-3.32 -4.38 l0 9.08 l-3.08 0 l0 -13.86 l2.54 0 q0.66 0.66 1.46 1.62 t1.63 2.05 t1.65 2.26 t1.54 2.25 l0 -8.18 l3.1 0 l0 13.86 l-2.62 0 z M29.8 8.54 q-2.18 0 -3.15 1.21 t-0.97 3.31 q0 1.02 0.24 1.85 t0.72 1.43 t1.2 0.93 t1.68 0.33 q0.52 0 0.89 -0.02 t0.65 -0.08 l0 -4.82 l3.12 0 l0 6.86 q-0.56 0.22 -1.8 0.47 t-3.06 0.25 q-1.56 0 -2.83 -0.48 t-2.17 -1.4 t-1.39 -2.26 t-0.49 -3.06 q0 -1.74 0.54 -3.08 t1.48 -2.27 t2.21 -1.41 t2.71 -0.48 q0.98 0 1.77 0.13 t1.36 0.3 t0.94 0.35 t0.53 0.28 l-0.9 2.5 q-0.64 -0.34 -1.47 -0.59 t-1.81 -0.25 z M37.080000000000005 20 l0 -13.86 l9.36 0 l0 2.62 l-6.24 0 l0 2.72 l5.54 0 l0 2.56 l-5.54 0 l0 3.34 l6.7 0 l0 2.62 l-9.82 0 z M58.50000000000001 20 q-1.34 -2.38 -2.9 -4.7 t-3.32 -4.38 l0 9.08 l-3.08 0 l0 -13.86 l2.54 0 q0.66 0.66 1.46 1.62 t1.63 2.05 t1.65 2.26 t1.54 2.25 l0 -8.18 l3.1 0 l0 13.86 l-2.62 0 z M69.74000000000001 20.28 q-1.46 0 -2.52 -0.41 t-1.75 -1.14 t-1.02 -1.74 t-0.33 -2.23 l0 -8.62 l3.12 0 l0 8.36 q0 0.84 0.19 1.43 t0.52 0.96 t0.8 0.53 t1.03 0.16 q1.14 0 1.85 -0.7 t0.71 -2.38 l0 -8.36 l3.12 0 l0 8.62 q0 1.22 -0.34 2.24 t-1.04 1.75 t-1.78 1.13 t-2.56 0.4 z M78.46000000000001 6.140000000000001 l3.12 0 l0 13.86 l-3.12 0 l0 -13.86 z M95.06 6.140000000000001 l0 2.66 l-4.18 0 l0 11.2 l-3.12 0 l0 -11.2 l-4.18 0 l0 -2.66 l11.48 0 z M102.14000000000001 11.84 q0.84 -1.42 1.6 -2.84 t1.4 -2.86 l3.44 0 q-1.14 2.24 -2.36 4.34 t-2.58 4.22 l0 5.3 l-3.12 0 l0 -5.26 q-1.36 -2.12 -2.59 -4.24 t-2.37 -4.36 l3.62 0 q0.64 1.44 1.38 2.86 t1.58 2.84 z M125.36 6.140000000000001 l0 2.66 l-4.18 0 l0 11.2 l-3.12 0 l0 -11.2 l-4.18 0 l0 -2.66 l11.48 0 z M127.36 20 l0 -13.86 l9.36 0 l0 2.62 l-6.24 0 l0 2.72 l5.54 0 l0 2.56 l-5.54 0 l0 3.34 l6.7 0 l0 2.62 l-9.82 0 z M145.79999999999998 20.28 q-3.38 0 -5.15 -1.88 t-1.77 -5.34 q0 -1.72 0.54 -3.07 t1.48 -2.28 t2.24 -1.41 t2.82 -0.48 q0.88 0 1.6 0.13 t1.26 0.3 t0.9 0.35 t0.52 0.28 l-0.9 2.52 q-0.64 -0.34 -1.49 -0.58 t-1.93 -0.24 q-0.72 0 -1.41 0.24 t-1.22 0.77 t-0.85 1.37 t-0.32 2.04 q0 0.96 0.21 1.79 t0.68 1.43 t1.23 0.95 t1.84 0.35 q0.68 0 1.22 -0.08 t0.96 -0.19 t0.74 -0.25 t0.58 -0.26 l0.86 2.5 q-0.66 0.4 -1.86 0.72 t-2.78 0.32 z M160.8 6.140000000000001 l3.12 0 l0 13.86 l-3.12 0 l0 -5.88 l-5.24 0 l0 5.88 l-3.12 0 l0 -13.86 l3.12 0 l0 5.3 l5.24 0 l0 -5.3 z M176.42000000000002 20 q-1.34 -2.38 -2.9 -4.7 t-3.32 -4.38 l0 9.08 l-3.08 0 l0 -13.86 l2.54 0 q0.66 0.66 1.46 1.62 t1.63 2.05 t1.65 2.26 t1.54 2.25 l0 -8.18 l3.1 0 l0 13.86 l-2.62 0 z M184.86 13.059999999999999 q0 1.02 0.25 1.84 t0.72 1.41 t1.15 0.91 t1.56 0.32 q0.86 0 1.55 -0.32 t1.16 -0.91 t0.72 -1.41 t0.25 -1.84 t-0.25 -1.85 t-0.72 -1.42 t-1.16 -0.91 t-1.55 -0.32 q-0.88 0 -1.56 0.33 t-1.15 0.92 t-0.72 1.42 t-0.25 1.83 z M195.44000000000003 13.059999999999999 q0 1.78 -0.53 3.13 t-1.45 2.26 t-2.19 1.37 t-2.73 0.46 q-1.42 0 -2.68 -0.46 t-2.2 -1.37 t-1.48 -2.26 t-0.54 -3.13 t0.56 -3.13 t1.51 -2.27 t2.2 -1.38 t2.63 -0.46 q1.42 0 2.68 0.46 t2.2 1.38 t1.48 2.27 t0.54 3.13 z M207.3 17.32 l0 2.68 l-9.26 0 l0 -13.86 l3.12 0 l0 11.18 l6.14 0 z M211.92000000000002 13.059999999999999 q0 1.02 0.25 1.84 t0.72 1.41 t1.15 0.91 t1.56 0.32 q0.86 0 1.55 -0.32 t1.16 -0.91 t0.72 -1.41 t0.25 -1.84 t-0.25 -1.85 t-0.72 -1.42 t-1.16 -0.91 t-1.55 -0.32 q-0.88 0 -1.56 0.33 t-1.15 0.92 t-0.72 1.42 t-0.25 1.83 z M222.50000000000003 13.059999999999999 q0 1.78 -0.53 3.13 t-1.45 2.26 t-2.19 1.37 t-2.73 0.46 q-1.42 0 -2.68 -0.46 t-2.2 -1.37 t-1.48 -2.26 t-0.54 -3.13 t0.56 -3.13 t1.51 -2.27 t2.2 -1.38 t2.63 -0.46 q1.42 0 2.68 0.46 t2.2 1.38 t1.48 2.27 t0.54 3.13 z M231.86 8.54 q-2.18 0 -3.15 1.21 t-0.97 3.31 q0 1.02 0.24 1.85 t0.72 1.43 t1.2 0.93 t1.68 0.33 q0.52 0 0.89 -0.02 t0.65 -0.08 l0 -4.82 l3.12 0 l0 6.86 q-0.56 0.22 -1.8 0.47 t-3.06 0.25 q-1.56 0 -2.83 -0.48 t-2.17 -1.4 t-1.39 -2.26 t-0.49 -3.06 q0 -1.74 0.54 -3.08 t1.48 -2.27 t2.21 -1.41 t2.71 -0.48 q0.98 0 1.77 0.13 t1.36 0.3 t0.94 0.35 t0.53 0.28 l-0.9 2.5 q-0.64 -0.34 -1.47 -0.59 t-1.81 -0.25 z M244.22000000000003 11.84 q0.84 -1.42 1.6 -2.84 t1.4 -2.86 l3.44 0 q-1.14 2.24 -2.36 4.34 t-2.58 4.22 l0 5.3 l-3.12 0 l0 -5.26 q-1.36 -2.12 -2.59 -4.24 t-2.37 -4.36 l3.62 0 q0.64 1.44 1.38 2.86 t1.58 2.84 z"></path></g><g id="SvgjsG5535" featureKey="EI8VXn-1" transform="matrix(3.11221749159688,0,0,3.11221749159688,-2.3030424574830546,169.88689366465863)" fill="#ffffff"><path d="M5.38 17.62 q0.66 0 1.09 -0.11 t0.69 -0.3 t0.36 -0.45 t0.1 -0.58 q0 -0.68 -0.64 -1.13 t-2.2 -0.97 q-0.68 -0.24 -1.36 -0.55 t-1.22 -0.78 t-0.88 -1.14 t-0.34 -1.63 t0.36 -1.73 t1.02 -1.31 t1.6 -0.83 t2.12 -0.29 q1.4 0 2.42 0.3 t1.68 0.66 l-0.9 2.46 q-0.58 -0.3 -1.29 -0.53 t-1.71 -0.23 q-1.12 0 -1.61 0.31 t-0.49 0.95 q0 0.38 0.18 0.64 t0.51 0.47 t0.76 0.38 t0.95 0.35 q1.08 0.4 1.88 0.79 t1.33 0.91 t0.79 1.22 t0.26 1.7 q0 1.94 -1.36 3.01 t-4.1 1.07 q-0.92 0 -1.66 -0.11 t-1.31 -0.27 t-0.98 -0.34 t-0.69 -0.34 l0.88 -2.48 q0.62 0.34 1.53 0.61 t2.23 0.27 z M15.86 13.059999999999999 q0 1.02 0.25 1.84 t0.72 1.41 t1.15 0.91 t1.56 0.32 q0.86 0 1.55 -0.32 t1.16 -0.91 t0.72 -1.41 t0.25 -1.84 t-0.25 -1.85 t-0.72 -1.42 t-1.16 -0.91 t-1.55 -0.32 q-0.88 0 -1.56 0.33 t-1.15 0.92 t-0.72 1.42 t-0.25 1.83 z M26.44 13.059999999999999 q0 1.78 -0.53 3.13 t-1.45 2.26 t-2.19 1.37 t-2.73 0.46 q-1.42 0 -2.68 -0.46 t-2.2 -1.37 t-1.48 -2.26 t-0.54 -3.13 t0.56 -3.13 t1.51 -2.27 t2.2 -1.38 t2.63 -0.46 q1.42 0 2.68 0.46 t2.2 1.38 t1.48 2.27 t0.54 3.13 z M38.3 17.32 l0 2.68 l-9.26 0 l0 -13.86 l3.12 0 l0 11.18 l6.14 0 z M45.72 20.28 q-1.46 0 -2.52 -0.41 t-1.75 -1.14 t-1.02 -1.74 t-0.33 -2.23 l0 -8.62 l3.12 0 l0 8.36 q0 0.84 0.19 1.43 t0.52 0.96 t0.8 0.53 t1.03 0.16 q1.14 0 1.85 -0.7 t0.71 -2.38 l0 -8.36 l3.12 0 l0 8.62 q0 1.22 -0.34 2.24 t-1.04 1.75 t-1.78 1.13 t-2.56 0.4 z M64.72 6.140000000000001 l0 2.66 l-4.18 0 l0 11.2 l-3.12 0 l0 -11.2 l-4.18 0 l0 -2.66 l11.48 0 z M66.72 6.140000000000001 l3.12 0 l0 13.86 l-3.12 0 l0 -13.86 z M75.66 13.059999999999999 q0 1.02 0.25 1.84 t0.72 1.41 t1.15 0.91 t1.56 0.32 q0.86 0 1.55 -0.32 t1.16 -0.91 t0.72 -1.41 t0.25 -1.84 t-0.25 -1.85 t-0.72 -1.42 t-1.16 -0.91 t-1.55 -0.32 q-0.88 0 -1.56 0.33 t-1.15 0.92 t-0.72 1.42 t-0.25 1.83 z M86.24 13.059999999999999 q0 1.78 -0.53 3.13 t-1.45 2.26 t-2.19 1.37 t-2.73 0.46 q-1.42 0 -2.68 -0.46 t-2.2 -1.37 t-1.48 -2.26 t-0.54 -3.13 t0.56 -3.13 t1.51 -2.27 t2.2 -1.38 t2.63 -0.46 q1.42 0 2.68 0.46 t2.2 1.38 t1.48 2.27 t0.54 3.13 z M98.14 20 q-1.34 -2.38 -2.9 -4.7 t-3.32 -4.38 l0 9.08 l-3.08 0 l0 -13.86 l2.54 0 q0.66 0.66 1.46 1.62 t1.63 2.05 t1.65 2.26 t1.54 2.25 l0 -8.18 l3.1 0 l0 13.86 l-2.62 0 z M107.74 17.62 q0.66 0 1.09 -0.11 t0.69 -0.3 t0.36 -0.45 t0.1 -0.58 q0 -0.68 -0.64 -1.13 t-2.2 -0.97 q-0.68 -0.24 -1.36 -0.55 t-1.22 -0.78 t-0.88 -1.14 t-0.34 -1.63 t0.36 -1.73 t1.02 -1.31 t1.6 -0.83 t2.12 -0.29 q1.4 0 2.42 0.3 t1.68 0.66 l-0.9 2.46 q-0.58 -0.3 -1.29 -0.53 t-1.71 -0.23 q-1.12 0 -1.61 0.31 t-0.49 0.95 q0 0.38 0.18 0.64 t0.51 0.47 t0.76 0.38 t0.95 0.35 q1.08 0.4 1.88 0.79 t1.33 0.91 t0.79 1.22 t0.26 1.7 q0 1.94 -1.36 3.01 t-4.1 1.07 q-0.92 0 -1.66 -0.11 t-1.31 -0.27 t-0.98 -0.34 t-0.69 -0.34 l0.88 -2.48 q0.62 0.34 1.53 0.61 t2.23 0.27 z"></path></g>
			</g>
		</svg>
